Motion_pl14
version=1
nRows=12
nColumns=43
inDegrees=yes
endheader
time	pelvis_tilt	pelvis_list	pelvis_rotation	pelvis_tx	pelvis_ty	pelvis_tz	hip_flexion_r	hip_adduction_r	hip_rotation_r	knee_angle_r	ankle_angle_r	subtalar_angle_r	mtp_angle_r	hip_flexion_l	hip_adduction_l	hip_rotation_l	knee_angle_l	ankle_angle_l	subtalar_angle_l	mtp_angle_l	lumbar_extension	lumbar_bending	lumbar_rotation	neck_flexion	neck_lateral_bending	neck_rotation	arm_flex_r	arm_add_r	arm_rot_r	elbow_flex_r	pro_sup_r	wrist_flex_r	wrist_dev_r	hand_finger_flex_r	arm_flex_l	arm_add_l	arm_rot_l	elbow_flex_l	pro_sup_l	wrist_flex_l	wrist_dev_l	hand_finger_flex_l
      0.00250000	     -0.15738791	      3.62744208	     88.24725395	      0.04802633	      1.78455041	      2.01256784	     88.68847623	     -5.25555760	      2.80283778	   -143.15755704	     22.16197629	      2.26978872	      6.34356385	     87.80281255	    -11.27821180	      8.61398796	   -143.81862729	     20.21622893	     20.26925691	     21.88785958	    -61.83758692	     -1.28569213	      1.36668889	     21.61052494	      0.02614752	     -3.67089166	     13.73180783	    -27.10242305	    -14.37955967	    103.28726590	    110.23687588	     -3.41505284	     -6.41737574	    -20.92919684	     18.27944419	    -20.75472145	    -17.84461344	    105.09274358	    112.69154505	     -4.27668703	      0.30947877	      6.06779893
      0.00500000	     -0.18996880	      3.57325991	     88.22069601	      0.04804213	      1.78457832	      2.01272303	     88.77430706	     -5.19902899	      2.81462510	   -143.12562499	     22.07724581	      2.22757655	      6.33032379	     87.84836798	    -11.28907425	      8.56744386	   -143.78358323	     20.23810913	     20.34846143	     21.84179630	    -61.89740813	     -1.34142861	      1.36563020	     21.92283574	      0.04233306	     -3.60863501	     13.90368321	    -27.06259797	    -14.09190958	    102.49860777	    110.28658218	     -3.30005511	     -6.23672312	    -20.90478341	     18.47607779	    -20.40975490	    -17.72708519	    104.23097761	    112.66943869	     -4.15504089	      0.42815179	      6.14574870
      0.00750000	     -0.21056776	      3.54173601	     88.19785507	      0.04801834	      1.78455037	      2.01283446	     88.83244333	     -5.15732008	      2.82786975	   -143.10965273	     22.03181309	      2.15459263	      6.31758450	     87.88722222	    -11.30099903	      8.53877155	   -143.77121368	     20.23568538	     20.39827163	     21.78911214	    -61.95072405	     -1.38774497	      1.36963687	     22.11176432	      0.07364251	     -3.57004228	     14.08354239	    -27.03837995	    -13.77764225	    101.66868960	    110.40803315	     -3.18612477	     -6.09470732	    -20.84460390	     18.68039326	    -20.07490201	    -17.60569026	    103.32702061	    112.56223684	     -3.98094718	      0.51419917	      6.26229047
      0.01000000	     -0.22564181	      3.61857559	     88.15188209	      0.04809972	      1.78436723	      2.01282558	     88.81282091	     -5.09041897	      2.80375611	   -143.15667528	     21.96336593	      1.91096219	      6.27180708	     87.84720428	    -11.35812238	      8.54107918	   -143.83092085	     20.22276317	     20.43082675	     21.61185007	    -61.98171436	     -1.44613036	      1.35245382	     21.72159550	      0.11322349	     -3.50444572	     14.33509377	    -27.01376866	    -13.32499766	    100.63432307	    110.83903074	     -3.08597276	     -6.15242407	    -20.63573962	     18.86757883	    -19.82135818	    -17.53800848	    102.21893256	    112.02177279	     -3.48759714	      0.34165268	      6.69819866
      0.01250000	     -0.22433678	      3.54686507	     88.15116747	      0.04803925	      1.78435893	      2.01293893	     88.88622195	     -5.07193316	      2.78987742	   -143.11654337	     21.96268487	      1.87942539	      6.25925534	     87.93247095	    -11.34166802	      8.53218246	   -143.79846897	     20.22361903	     20.44745865	     21.56851371	    -62.05213671	     -1.45428361	      1.34906695	     22.16973710	      0.11033885	     -3.49315203	     14.50109063	    -26.89395715	    -13.07538728	     99.87961044	    110.93803787	     -3.02323437	     -6.06315725	    -20.55513129	     19.04010895	    -19.60492562	    -17.40403482	    101.37960186	    111.89423178	     -3.39998429	      0.46320245	      6.78161659
      0.01500000	     -0.22408133	      3.49542445	     88.14889734	      0.04794309	      1.78438729	      2.01305357	     88.92737487	     -5.06464519	      2.77705073	   -143.09009926	     21.96445223	      1.81818683	      6.23899375	     87.97881215	    -11.33278961	      8.52608853	   -143.78314516	     20.20944420	     20.45321208	     21.51317191	    -62.11036331	     -1.45683746	      1.35127353	     22.41124154	      0.11953372	     -3.48486910	     14.70072970	    -26.81893116	    -12.75080805	     99.04491145	    111.05461300	     -2.94763730	     -6.04262784	    -20.44243711	     19.25369097	    -19.47107014	    -17.19647274	    100.44186656	    111.65840664	     -3.27999138	      0.56648259	      6.90293211
      0.01750000	     -0.23065004	      3.58980596	     88.14790698	      0.04796441	      1.78421240	      2.01300520	     88.86225812	     -5.06163731	      2.73370373	   -143.13739164	     21.96069356	      1.61343083	      6.15764274	     87.93267405	    -11.31677106	      8.53729773	   -143.84035028	     20.19518379	     20.42097008	     21.33513703	    -62.16839727	     -1.46657814	      1.31416308	     22.06750150	      0.12944314	     -3.47334503	     14.93897097	    -26.74857874	    -12.30111388	     97.95492619	    111.27049733	     -2.98130195	     -6.46705259	    -20.14022806	     19.44403210	    -19.51610975	    -16.88755321	     99.29651307	    110.70125643	     -3.15619443	      0.49310884	      7.26922821
      0.02000000	     -0.22706388	      3.50938783	     88.15208240	      0.04788941	      1.78424046	      2.01310645	     88.92878615	     -5.06901197	      2.72547171	   -143.08841623	     21.95783211	      1.59874354	      6.13310161	     88.00555418	    -11.30848988	      8.52366935	   -143.80586195	     20.20315403	     20.43178811	     21.28839303	    -62.24332217	     -1.45768036	      1.31226633	     22.53004087	      0.11690189	     -3.46425805	     15.10671334	    -26.60785965	    -12.03443413	     97.21404723	    111.28700111	     -2.95415177	     -6.45317751	    -20.04560064	     19.61582768	    -19.47958619	    -16.64503129	     98.44100769	    110.49753620	     -3.15997947	      0.65860651	      7.33872663
      0.02250000	     -0.23305142	      3.48033892	     88.15376680	      0.04781480	      1.78418691	      2.01316380	     88.96243093	     -5.08332713	      2.71383535	   -143.06427468	     21.96050937	      1.57163308	      6.10958813	     88.04625880	    -11.27041087	      8.51649457	   -143.80156439	     20.20272281	     20.43366422	     21.24438527	    -62.32003465	     -1.46229903	      1.29984934	     22.81437390	      0.10754707	     -3.46251671	     15.26568189	    -26.51402836	    -11.72856033	     96.41447493	    111.28681106	     -2.91575141	     -6.48795376	    -19.95764726	     19.80812264	    -19.51613436	    -16.33133132	     97.52298897	    110.24754780	     -3.16296594	      0.83002718	      7.39969018
      0.02500000	     -0.29195763	      3.59404934	     88.18633527	      0.04771474	      1.78416337	      2.01310096	     88.87163503	     -5.14644511	      2.76497610	   -143.10915003	     21.95151085	      1.40820451	      5.94655735	     87.92272196	    -11.23028852	      8.42806264	   -143.83854010	     20.24452291	     20.37949142	     20.95781513	    -62.43928508	     -1.47573335	      1.22416445	     22.60034313	      0.13104373	     -3.50257085	     15.44508965	    -26.38460049	    -11.32469600	     95.27653691	    111.08148105	     -3.30928261	     -7.46757822	    -19.57486444	     20.00197914	    -19.71354207	    -15.71415556	     96.39716989	    108.42616859	     -3.82674302	      0.93425387	      7.67748348
      0.02750000	     -0.29722814	      3.53709822	     88.18188364	      0.04762097	      1.78406340	      2.01317895	     88.94465687	     -5.16900852	      2.75628079	   -143.08288926	     21.95981653	      1.41955673	      5.93115764	     87.98942577	    -11.20916922	      8.42148884	   -143.82567938	     20.23918988	     20.38596005	     20.92500367	    -62.51794860	     -1.47927041	      1.21524388	     23.01610745	      0.11098521	     -3.48595953	     15.56945855	    -26.36211369	    -11.00948899	     94.58743223	    111.10023260	     -3.23477383	     -7.34765332	    -19.48604937	     20.17047678	    -19.78110763	    -15.38867605	     95.57354406	    108.37105592	     -3.80742160	      1.16183490	      7.71948430
      0.03000000	     -0.33631830	      3.62071640	     88.20991881	      0.04748946	      1.78397027	      2.01318936	     88.89003355	     -5.24095831	      2.78533044	   -143.11265914	     21.97730796	      1.37319626	      5.87835931	     87.92170111	    -11.15933628	      8.36456694	   -143.86372930	     20.22682006	     20.36461503	     20.82200472	    -62.62814992	     -1.48373596	      1.19275590	     22.90286157	      0.10875105	     -3.48962792	     15.71317562	    -26.37720535	    -10.61893131	     93.70344756	    111.14327675	     -3.27869673	     -7.50414650	    -19.29816998	     20.41362573	    -19.88633860	    -14.89306676	     94.55888187	    107.89329412	     -3.96327476	      1.42130015	      7.79267651
